<svg width="24" height="25" viewBox="0 0 24 25" fill="none" xmlns="http://www.w3.org/2000/svg">
<path d="M17 2.46381H7C4.23858 2.46381 2 4.70238 2 7.46381V17.4638C2 20.2252 4.23858 22.4638 7 22.4638H17C19.7614 22.4638 22 20.2252 22 17.4638V7.46381C22 4.70238 19.7614 2.46381 17 2.46381Z" stroke="#00BAA4" stroke-width="1.5" stroke-linecap="round" stroke-linejoin="round"/>
<path d="M16 11.8338C16.1234 12.6661 15.9813 13.516 15.5938 14.2628C15.2063 15.0096 14.5931 15.6152 13.8416 15.9935C13.0901 16.3717 12.2384 16.5034 11.4078 16.3697C10.5771 16.2361 9.80976 15.8439 9.21484 15.249C8.61991 14.654 8.22773 13.8867 8.09406 13.056C7.9604 12.2254 8.09206 11.3737 8.47032 10.6222C8.84858 9.87066 9.45418 9.25755 10.201 8.87005C10.9478 8.48255 11.7978 8.34039 12.63 8.46381C13.4789 8.58969 14.2648 8.98527 14.8717 9.59211C15.4785 10.199 15.8741 10.9849 16 11.8338Z" stroke="#00BAA4" stroke-width="1.5" stroke-linecap="round" stroke-linejoin="round"/>
<path d="M17.5 6.96381H17.51" stroke="#00BAA4" stroke-width="2" stroke-linecap="round" stroke-linejoin="round"/>
</svg>
