<svg width="25" height="24" viewBox="0 0 25 24" fill="none" xmlns="http://www.w3.org/2000/svg">
<g clip-path="url(#clip0_7_164)">
<path d="M23.0193 3C22.0617 3.67548 21.0015 4.19211 19.8793 4.53C19.2771 3.83751 18.4767 3.34669 17.5864 3.12393C16.6961 2.90116 15.7588 2.9572 14.9014 3.28445C14.044 3.61171 13.3078 4.1944 12.7923 4.95372C12.2769 5.71303 12.007 6.61234 12.0193 7.53V8.53C10.262 8.57557 8.52062 8.18581 6.95036 7.39545C5.38009 6.60508 4.02967 5.43864 3.01935 4C3.01935 4 -0.980652 13 8.01935 17C5.95988 18.398 3.50651 19.0989 1.01935 19C10.0193 24 21.0193 19 21.0193 7.5C21.0184 7.22145 20.9916 6.94359 20.9393 6.67C21.96 5.66349 22.6802 4.39271 23.0193 3Z" stroke="#00BAA4" stroke-width="1.5" stroke-linecap="round" stroke-linejoin="round"/>
</g>
<defs>
<clipPath id="clip0_7_164">
<rect width="24" height="24" fill="white" transform="translate(0.0193481)"/>
</clipPath>
</defs>
</svg>
