<svg width="25" height="24" viewBox="0 0 25 24" fill="none" xmlns="http://www.w3.org/2000/svg">
<g clip-path="url(#clip0_7_165)">
<path d="M22.5594 6.42C22.4406 5.94541 22.1986 5.51057 21.858 5.15941C21.5174 4.80824 21.0901 4.55318 20.6194 4.42C18.8994 4 12.0194 4 12.0194 4C12.0194 4 5.13936 4 3.41936 4.46C2.9486 4.59318 2.52133 4.84824 2.1807 5.19941C1.84007 5.55057 1.59814 5.98541 1.47936 6.46C1.16457 8.20556 1.01059 9.97631 1.01936 11.75C1.00813 13.537 1.16212 15.3213 1.47936 17.08C1.61031 17.5398 1.85766 17.9581 2.1975 18.2945C2.53734 18.6308 2.95818 18.8738 3.41936 19C5.13936 19.46 12.0194 19.46 12.0194 19.46C12.0194 19.46 18.8994 19.46 20.6194 19C21.0901 18.8668 21.5174 18.6118 21.858 18.2606C22.1986 17.9094 22.4406 17.4746 22.5594 17C22.8717 15.2676 23.0257 13.5103 23.0194 11.75C23.0306 9.96295 22.8766 8.1787 22.5594 6.42Z" stroke="#00BAA4" stroke-width="1.5" stroke-linecap="round" stroke-linejoin="round"/>
<path d="M9.76935 15.02L15.5193 11.75L9.76935 8.48V15.02Z" stroke="#00BAA4" stroke-width="1.5" stroke-linecap="round" stroke-linejoin="round"/>
</g>
<defs>
<clipPath id="clip0_7_165">
<rect width="24" height="24" fill="white" transform="translate(0.0193481)"/>
</clipPath>
</defs>
</svg>
